<mxfile host="app.diagrams.net" modified="2023-04-21T18:38:12.705Z" agent="Mozilla/5.0 (Windows NT 10.0; Win64; x64) AppleWebKit/537.36 (KHTML, like Gecko) Chrome/112.0.0.0 Safari/537.36" etag="JHr0upsD3JxYmv0DH-l8" version="21.2.1" type="github">
  <diagram name="Page-1" id="2a216829-ef6e-dabb-86c1-c78162f3ba2b">
    <mxGraphModel dx="880" dy="452" grid="1" gridSize="10" guides="1" tooltips="1" connect="1" arrows="1" fold="1" page="1" pageScale="1" pageWidth="850" pageHeight="1100" background="none" math="0" shadow="0">
      <root>
        <mxCell id="0" />
        <mxCell id="1" parent="0" />
        <mxCell id="RpWu5ScRaHwwIXdRaJei-2" value="Pool" style="swimlane;html=1;childLayout=stackLayout;resizeParent=1;resizeParentMax=0;horizontal=1;startSize=20;horizontalStack=0;whiteSpace=wrap;" parent="1" vertex="1">
          <mxGeometry x="60" y="70" width="790" height="510" as="geometry" />
        </mxCell>
        <mxCell id="RpWu5ScRaHwwIXdRaJei-3" value="Пассажир" style="swimlane;html=1;startSize=20;horizontal=0;" parent="RpWu5ScRaHwwIXdRaJei-2" vertex="1">
          <mxGeometry y="20" width="790" height="170" as="geometry" />
        </mxCell>
        <mxCell id="RpWu5ScRaHwwIXdRaJei-7" value="" style="edgeStyle=orthogonalEdgeStyle;rounded=0;orthogonalLoop=1;jettySize=auto;html=1;entryX=0;entryY=0.5;entryDx=0;entryDy=0;" parent="RpWu5ScRaHwwIXdRaJei-3" source="RpWu5ScRaHwwIXdRaJei-6" target="7a84cebc1def654-22" edge="1">
          <mxGeometry relative="1" as="geometry" />
        </mxCell>
        <mxCell id="RpWu5ScRaHwwIXdRaJei-6" value="" style="points=[[0.145,0.145,0],[0.5,0,0],[0.855,0.145,0],[1,0.5,0],[0.855,0.855,0],[0.5,1,0],[0.145,0.855,0],[0,0.5,0]];shape=mxgraph.bpmn.event;html=1;verticalLabelPosition=bottom;labelBackgroundColor=#ffffff;verticalAlign=top;align=center;perimeter=ellipsePerimeter;outlineConnect=0;aspect=fixed;outline=standard;symbol=general;" parent="RpWu5ScRaHwwIXdRaJei-3" vertex="1">
          <mxGeometry x="40" y="70" width="30" height="30" as="geometry" />
        </mxCell>
        <mxCell id="7a84cebc1def654-22" value="Ввести критерии для поиска маршрута" style="html=1;whiteSpace=wrap;rounded=1;" parent="RpWu5ScRaHwwIXdRaJei-3" vertex="1">
          <mxGeometry x="110" y="55" width="100" height="60" as="geometry" />
        </mxCell>
        <mxCell id="RpWu5ScRaHwwIXdRaJei-50" value="" style="edgeStyle=orthogonalEdgeStyle;rounded=0;orthogonalLoop=1;jettySize=auto;html=1;endArrow=classic;endFill=1;exitX=1;exitY=0.5;exitDx=0;exitDy=0;" parent="RpWu5ScRaHwwIXdRaJei-3" source="RpWu5ScRaHwwIXdRaJei-45" target="RpWu5ScRaHwwIXdRaJei-47" edge="1">
          <mxGeometry relative="1" as="geometry">
            <mxPoint x="680" y="90" as="sourcePoint" />
          </mxGeometry>
        </mxCell>
        <mxCell id="RpWu5ScRaHwwIXdRaJei-45" value="Принятие решения по маршруту" style="html=1;whiteSpace=wrap;rounded=1;" parent="RpWu5ScRaHwwIXdRaJei-3" vertex="1">
          <mxGeometry x="585" y="65" width="120" height="50" as="geometry" />
        </mxCell>
        <mxCell id="RpWu5ScRaHwwIXdRaJei-47" value="" style="points=[[0.145,0.145,0],[0.5,0,0],[0.855,0.145,0],[1,0.5,0],[0.855,0.855,0],[0.5,1,0],[0.145,0.855,0],[0,0.5,0]];shape=mxgraph.bpmn.event;html=1;verticalLabelPosition=bottom;labelBackgroundColor=#ffffff;verticalAlign=top;align=center;perimeter=ellipsePerimeter;outlineConnect=0;aspect=fixed;outline=end;symbol=terminate2;" parent="RpWu5ScRaHwwIXdRaJei-3" vertex="1">
          <mxGeometry x="730" y="75" width="30" height="30" as="geometry" />
        </mxCell>
        <mxCell id="RpWu5ScRaHwwIXdRaJei-51" style="edgeStyle=orthogonalEdgeStyle;rounded=0;orthogonalLoop=1;jettySize=auto;html=1;exitX=0.5;exitY=1;exitDx=0;exitDy=0;entryX=0;entryY=0;entryDx=15;entryDy=0;entryPerimeter=0;endArrow=classic;endFill=1;dashed=1;dashPattern=1 4;" parent="RpWu5ScRaHwwIXdRaJei-2" target="RpWu5ScRaHwwIXdRaJei-36" edge="1">
          <mxGeometry relative="1" as="geometry">
            <mxPoint x="135" y="135" as="sourcePoint" />
          </mxGeometry>
        </mxCell>
        <mxCell id="RpWu5ScRaHwwIXdRaJei-38" style="edgeStyle=orthogonalEdgeStyle;rounded=0;orthogonalLoop=1;jettySize=auto;html=1;endArrow=classic;endFill=1;dashed=1;dashPattern=1 4;" parent="RpWu5ScRaHwwIXdRaJei-2" source="RpWu5ScRaHwwIXdRaJei-36" edge="1">
          <mxGeometry relative="1" as="geometry">
            <mxPoint x="235" y="360" as="sourcePoint" />
            <mxPoint x="135" y="370" as="targetPoint" />
          </mxGeometry>
        </mxCell>
        <mxCell id="B0VzYccjuv4eH6-I7Sfg-4" value="Веб-приложение" style="swimlane;html=1;startSize=20;horizontal=0;" parent="RpWu5ScRaHwwIXdRaJei-2" vertex="1">
          <mxGeometry y="190" width="790" height="140" as="geometry" />
        </mxCell>
        <mxCell id="AOdJfBD7xcMpeH829ozu-7" style="edgeStyle=orthogonalEdgeStyle;rounded=0;orthogonalLoop=1;jettySize=auto;html=1;exitX=0;exitY=0;exitDx=30;exitDy=32.5;exitPerimeter=0;endArrow=none;endFill=0;" edge="1" parent="B0VzYccjuv4eH6-I7Sfg-4" source="RpWu5ScRaHwwIXdRaJei-36">
          <mxGeometry relative="1" as="geometry">
            <mxPoint x="180" y="53" as="targetPoint" />
          </mxGeometry>
        </mxCell>
        <mxCell id="RpWu5ScRaHwwIXdRaJei-36" value="Критерии поиска" style="shape=mxgraph.bpmn.data;labelPosition=center;verticalLabelPosition=bottom;align=center;verticalAlign=top;whiteSpace=wrap;size=15;html=1;" parent="B0VzYccjuv4eH6-I7Sfg-4" vertex="1">
          <mxGeometry x="120" y="20" width="30" height="50" as="geometry" />
        </mxCell>
        <mxCell id="RpWu5ScRaHwwIXdRaJei-46" value="Отобразить подходящие маршруты" style="html=1;whiteSpace=wrap;rounded=1;" parent="B0VzYccjuv4eH6-I7Sfg-4" vertex="1">
          <mxGeometry x="590" y="40" width="110" height="60" as="geometry" />
        </mxCell>
        <mxCell id="RpWu5ScRaHwwIXdRaJei-49" value="" style="edgeStyle=orthogonalEdgeStyle;rounded=0;orthogonalLoop=1;jettySize=auto;html=1;endArrow=classic;endFill=1;entryX=0.5;entryY=1;entryDx=0;entryDy=0;" parent="RpWu5ScRaHwwIXdRaJei-2" source="RpWu5ScRaHwwIXdRaJei-46" target="RpWu5ScRaHwwIXdRaJei-45" edge="1">
          <mxGeometry relative="1" as="geometry">
            <mxPoint x="630" y="150" as="targetPoint" />
          </mxGeometry>
        </mxCell>
        <mxCell id="RpWu5ScRaHwwIXdRaJei-59" value="" style="edgeStyle=orthogonalEdgeStyle;rounded=0;orthogonalLoop=1;jettySize=auto;html=1;endArrow=classic;endFill=1;exitX=1;exitY=0.5;exitDx=0;exitDy=0;" parent="RpWu5ScRaHwwIXdRaJei-2" source="B0VzYccjuv4eH6-I7Sfg-2" target="RpWu5ScRaHwwIXdRaJei-46" edge="1">
          <mxGeometry relative="1" as="geometry">
            <mxPoint x="650" y="490" as="sourcePoint" />
          </mxGeometry>
        </mxCell>
        <mxCell id="AOdJfBD7xcMpeH829ozu-1" style="edgeStyle=orthogonalEdgeStyle;rounded=0;orthogonalLoop=1;jettySize=auto;html=1;exitX=0.68;exitY=0.983;exitDx=0;exitDy=0;exitPerimeter=0;" edge="1" parent="RpWu5ScRaHwwIXdRaJei-2" source="7a84cebc1def654-22">
          <mxGeometry relative="1" as="geometry">
            <mxPoint x="180" y="140" as="sourcePoint" />
            <mxPoint x="180" y="370" as="targetPoint" />
            <Array as="points">
              <mxPoint x="180" y="210" />
              <mxPoint x="180" y="210" />
            </Array>
          </mxGeometry>
        </mxCell>
        <mxCell id="RpWu5ScRaHwwIXdRaJei-4" value="Система" style="swimlane;html=1;startSize=20;horizontal=0;" parent="RpWu5ScRaHwwIXdRaJei-2" vertex="1">
          <mxGeometry y="330" width="790" height="180" as="geometry" />
        </mxCell>
        <mxCell id="B0VzYccjuv4eH6-I7Sfg-2" value="Определить&lt;br&gt;продолжительность пути" style="html=1;whiteSpace=wrap;rounded=1;" parent="RpWu5ScRaHwwIXdRaJei-4" vertex="1">
          <mxGeometry x="500" y="40" width="115" height="60" as="geometry" />
        </mxCell>
        <mxCell id="B0VzYccjuv4eH6-I7Sfg-7" value="" style="edgeStyle=orthogonalEdgeStyle;rounded=0;orthogonalLoop=1;jettySize=auto;html=1;dashed=1;exitX=0.5;exitY=1;exitDx=0;exitDy=0;" parent="RpWu5ScRaHwwIXdRaJei-4" source="B0VzYccjuv4eH6-I7Sfg-3" target="B0VzYccjuv4eH6-I7Sfg-6" edge="1">
          <mxGeometry relative="1" as="geometry" />
        </mxCell>
        <mxCell id="AOdJfBD7xcMpeH829ozu-5" style="edgeStyle=orthogonalEdgeStyle;rounded=0;orthogonalLoop=1;jettySize=auto;html=1;" edge="1" parent="RpWu5ScRaHwwIXdRaJei-4" target="B0VzYccjuv4eH6-I7Sfg-2">
          <mxGeometry relative="1" as="geometry">
            <mxPoint x="220" y="70" as="sourcePoint" />
          </mxGeometry>
        </mxCell>
        <mxCell id="B0VzYccjuv4eH6-I7Sfg-3" value="Найти маршруты по критериям в БД" style="rounded=1;whiteSpace=wrap;html=1;" parent="RpWu5ScRaHwwIXdRaJei-4" vertex="1">
          <mxGeometry x="100" y="40" width="120" height="60" as="geometry" />
        </mxCell>
        <mxCell id="B0VzYccjuv4eH6-I7Sfg-6" value="бд" style="shape=datastore;html=1;labelPosition=center;verticalLabelPosition=bottom;align=center;verticalAlign=top;" parent="RpWu5ScRaHwwIXdRaJei-4" vertex="1">
          <mxGeometry x="270" y="100" width="50" height="50" as="geometry" />
        </mxCell>
      </root>
    </mxGraphModel>
  </diagram>
</mxfile>
